<svg width="16" height="17" viewBox="0 0 16 17" fill="none" xmlns="http://www.w3.org/2000/svg">
<path d="M7.30737 5.25147C7.32406 4.89187 7.61614 4.56651 7.99999 4.56651C8.37552 4.56651 8.67593 4.89187 8.69263 5.25147V1.90374C8.69263 1.52702 8.37552 1.20166 7.99999 1.20166C7.61614 1.20166 7.30737 1.52702 7.30737 1.90374V5.25147ZM8.69263 4.68638V8.69339L8.63421 9.69514L8.95967 9.26705L9.79416 8.34234C9.91099 8.20536 10.0862 8.12829 10.2531 8.12829C10.5953 8.12829 10.8706 8.38516 10.8706 8.74477C10.8706 8.92457 10.8039 9.06155 10.6787 9.18998L8.52572 11.3048C8.35048 11.4846 8.18359 11.5445 7.99999 11.5445C7.8164 11.5445 7.64952 11.4846 7.46591 11.3048L5.32127 9.18998C5.19611 9.06155 5.12099 8.92457 5.12099 8.74477C5.12099 8.38516 5.39639 8.12829 5.73852 8.12829C5.90543 8.12829 6.08067 8.20536 6.20584 8.34234L7.04033 9.26705L7.35744 9.69514L7.29903 8.69339V4.68638H4.23645C2.76773 4.68638 2 5.46552 2 6.95531V13.5994C2 15.0892 2.76773 15.8683 4.23645 15.8683H11.7636C13.2323 15.8683 14 15.0892 14 13.5994V6.95531C14 5.46552 13.2323 4.68638 11.7636 4.68638H8.69263Z" fill="#7EBC0A"/>
</svg>
