<svg width="24" height="25" viewBox="0 0 24 25" fill="none" xmlns="http://www.w3.org/2000/svg">
<path fill-rule="evenodd" clip-rule="evenodd" d="M22 2.53516V22.5352H2V2.53516H22ZM9.46481 14.8063L15.6478 18.5161L20.75 14.4344V11.5879C19.8562 12.1862 18.7813 12.5352 17.625 12.5352C14.5184 12.5352 12 10.0168 12 6.91016C12 5.75381 12.3489 4.67897 12.9472 3.78516H3.25V18.9495L9.46481 14.8063ZM14.5631 3.78516C13.7513 4.58049 13.25 5.68642 13.25 6.91016C13.25 9.3264 15.2088 11.2852 17.625 11.2852C18.8487 11.2852 19.9547 10.7839 20.75 9.97207V3.84829C20.7292 3.82703 20.7081 3.80599 20.6869 3.78516H14.5631ZM15.75 20.0352L20.75 16.0352V21.2852H3.25V20.4518L9.5 16.2852L15.75 20.0352Z" fill="#929292"/>
</svg>
